<svg xmlns:fi="http://pattern.flaticon.com/" xmlns:xlink="http://www.w3.org/1999/xlink" viewBox="0 0 700 350">
  <rect width="100%" height="100%" fill="#fff"/>
  <defs>
    <g id="a" transform="matrix(.11719 0 0 .11719 20 134)">
      <path fill="#c1e9af" d="M443.16 329.18l65.77-65.77c4.1-4.1 4.1-10.73 0-14.82l-65.77-65.77a10.47 10.47 0 01-3.07-7.41V82.39c0-5.79-4.7-10.48-10.48-10.48H336.6c-2.78 0-5.44-1.1-7.4-3.07L263.4 3.07a10.48 10.48 0 00-14.82 0l-65.77 65.77a10.47 10.47 0 01-7.41 3.07H82.39A10.48 10.48 0 0071.9 82.4v93.02c0 2.78-1.1 5.44-3.07 7.4L3.07 248.6a10.48 10.48 0 000 14.82l65.77 65.77a10.47 10.47 0 013.07 7.41v93.02c0 5.79 4.7 10.48 10.48 10.48h93.02c2.78 0 5.44 1.1 7.4 3.07l65.78 65.77c4.1 4.1 10.73 4.1 14.82 0l65.77-65.77a10.47 10.47 0 017.41-3.07h93.02c5.79 0 10.48-4.7 10.48-10.48V336.6c0-2.78 1.1-5.44 3.07-7.4z"/>
      <path fill="#ade194" d="M508.93 248.6l-65.77-65.78a10.47 10.47 0 01-3.07-7.41V82.39c0-5.79-4.7-10.48-10.48-10.48h-9.32C412.57 257.78 259.61 406.12 71.91 406.4v23.21c0 5.79 4.7 10.48 10.48 10.48h93.02c2.78 0 5.44 1.1 7.4 3.07l65.78 65.77c4.1 4.1 10.73 4.1 14.82 0l65.77-65.77a10.47 10.47 0 017.41-3.07h93.02c5.79 0 10.48-4.7 10.48-10.48V336.6c0-2.78 1.1-5.44 3.07-7.4l65.77-65.78c4.1-4.1 4.1-10.73 0-14.82z"/>
      <path fill="#f5f8f9" d="M451.87 248.6l-52.13-52.14v-73.72c0-5.79-4.7-10.48-10.48-10.48h-73.72l-52.13-52.13a10.48 10.48 0 00-14.82 0l-52.13 52.13h-73.72a10.48 10.48 0 00-10.48 10.48v73.72L60.13 248.6a10.48 10.48 0 000 14.82l52.13 52.13v73.72c0 5.79 4.7 10.48 10.48 10.48h73.72l52.13 52.13c4.1 4.1 10.73 4.1 14.82 0l52.13-52.13h73.72c5.79 0 10.48-4.7 10.48-10.48v-73.72l52.13-52.13c4.1-4.1 4.1-10.73 0-14.82z"/>
      <path fill="#e8edf2" d="M399.74 196.46v-20.2c-41.17 113.5-139.48 199.6-260.18 223.48h56.9l52.13 52.13c4.1 4.1 10.73 4.1 14.82 0l52.13-52.13h73.72c5.79 0 10.48-4.7 10.48-10.48v-73.72l52.13-52.13c4.1-4.1 4.1-10.73 0-14.82z"/>
      <circle cx="252" cy="255" r="60" fill="#c1e9af"/>
    </g>
    <g id="c">
      <path d="M385.32 108.91h-68.45c-73.75-71.63-48.22-71.34-121.8 0-102.81 1.5-84.55-16.35-86.13 86.13-71.72 73.93-71.4 48.04 0 121.8 1.49 102.8-16.36 84.54 86.12 86.13l48.4 48.4h.01a17.7 17.7 0 0024.99 0l48.4-48.4c102.8-1.5 84.55 16.36 86.13-86.13 71.71-73.93 71.4-48.04 0-121.8v-68.46c0-9.74-7.92-17.67-17.67-17.67zm0 15c1.48 0 2.67 1.2 2.67 2.67v53.46l-56.12-56.13zm2.67 77.34v109.38l-77.34 77.34H201.28l-77.34-77.34V201.25l77.34-77.34h109.37zM254.08 71.11a2.67 2.67 0 013.77 0l37.8 37.8h-79.37zm-130.14 55.47c0-1.47 1.2-2.67 2.67-2.67h53.45l-56.12 56.13v-53.46zm-52.8 131.25c-1.1-1.44-1.1-2.34 0-3.78l37.8-37.8v79.38zm55.47 130.14a2.67 2.67 0 01-2.67-2.67v-53.46l56.12 56.13zm131.24 52.8a2.67 2.67 0 01-3.77 0l-37.8-37.8h79.37zM388 385.3c0 1.47-1.2 2.67-2.67 2.67h-53.45l56.12-56.13v53.46zm52.8-131.25c1.1 1.44 1.1 2.34 0 3.78l-37.8 37.8v-79.38z" transform="matrix(.1172 0 0 .1172 199 302)"/>
      <path d="M506.79 243.45l-63.85-63.85c-.5-.5-.78-1.18-.78-1.89v-90.3c0-9.74-7.93-17.66-17.67-17.66h-90.3c-.7 0-1.39-.29-1.88-.79-96.3-91.7-56.18-92.08-152.69 0C45.3 75.25 74.02 40.77 69 179.6l-25.94 25.94c-6.76 6.92 3.5 17.55 10.6 10.6L79.6 190.2a17.55 17.55 0 005.17-12.49v-90.3c0-1.47 1.2-2.66 2.67-2.66h90.3c4.72 0 9.15-1.84 12.49-5.18l63.85-63.85a2.67 2.67 0 013.77 0l63.85 63.85a17.56 17.56 0 0012.5 5.18h90.29c1.47 0 2.67 1.2 2.67 2.66v90.3c0 4.72 1.84 9.15 5.17 12.5l63.85 63.84a2.66 2.66 0 010 3.78l-63.85 63.85a17.55 17.55 0 00-5.17 12.49v33.64a7.5 7.5 0 1015 0v-33.64c0-.71.28-1.38.78-1.89l63.85-63.85c6.84-6.58 6.86-18.4 0-24.98zM434.66 394.52a7.5 7.5 0 00-7.5 7.5v22.45c0 1.47-1.2 2.66-2.67 2.66h-90.3c-4.72 0-9.15 1.84-12.49 5.18l-63.85 63.85a2.67 2.67 0 01-3.77 0l-63.85-63.85a17.56 17.56 0 00-12.5-5.17h-90.3a2.67 2.67 0 01-2.66-2.67v-90.3c0-4.72-1.84-9.16-5.18-12.5l-63.84-63.84a2.66 2.66 0 010-3.78l16.37-16.37a7.5 7.5 0 10-10.61-10.6L5.14 243.45c-6.85 6.58-6.86 18.4 0 24.98l63.85 63.85c.5.5.78 1.18.78 1.89v90.3c0 9.74 7.93 17.66 17.67 17.66h90.3c.7 0 1.39.29 1.88.79 96.53 91.84 56.04 92.07 152.69 0 .5-.5 1.18-.79 1.88-.79h90.3c9.74 0 17.67-7.92 17.67-17.66v-22.45a7.5 7.5 0 00-7.5-7.5z" transform="matrix(.1172 0 0 .1172 199 302)"/>
      <path d="M185.72 255.43c2.3 87.67 130.67 87.65 132.96 0-2.3-87.67-130.67-87.65-132.96 0zm66.48-51.48c67.89 1.78 67.87 101.2 0 102.96-67.89-1.78-67.87-101.19 0-102.96z" transform="matrix(.1172 0 0 .1172 199 302)"/>
    </g>
  </defs>
  <g opacity=".63" fi:class="KUsePattern">
    <pattern id="b" width="350" height="350" patternUnits="userSpaceOnUse">
      <use x="-350" y="-350" xlink:href="#a"/>
      <use y="-350" xlink:href="#a"/>
      <use x="350" y="-350" xlink:href="#a"/>
      <use x="-350" xlink:href="#a"/>
      <use xlink:href="#a"/>
      <use x="350" xlink:href="#a"/>
      <use x="-350" y="350" xlink:href="#a"/>
      <use y="350" xlink:href="#a"/>
      <use x="350" y="350" xlink:href="#a"/>
    </pattern>
    <rect width="100%" height="100%" fill="url(#b)"/>
  </g>
  <g opacity=".37" fi:class="KUsePattern">
    <pattern id="d" width="350" height="350" patternUnits="userSpaceOnUse">
      <use x="-350" y="-350" xlink:href="#c"/>
      <use y="-350" xlink:href="#c"/>
      <use x="350" y="-350" xlink:href="#c"/>
      <use x="-350" xlink:href="#c"/>
      <use xlink:href="#c"/>
      <use x="350" xlink:href="#c"/>
      <use x="-350" y="350" xlink:href="#c"/>
      <use y="350" xlink:href="#c"/>
      <use x="350" y="350" xlink:href="#c"/>
    </pattern>
    <rect width="100%" height="100%" fill="url(#d)"/>
  </g>
</svg>